# xmcd CD database file
#
# Track frame offsets:
#	182
#	13947
#	27137
#	37277
#	55290
#	67192
#	89212
#	98257
#	115537
#	131252
#	141702
#	151447
#	164920
#	174632
#	195607
#
# Disc length: 2851 seconds
#
# Revision: 1
# Processed by: cddbd v1.5.1PL2 Copyright (c) Steve Scherf et al.
# Submitted via: CDex 1.51
#
DISCID=dd0b210f
DTITLE=Bad Dream Fancy Dress - Choirboys Gas
DYEAR=1993
DGENRE=Pop
TTITLE0=The Supremes
TTITLE1=Lemon Tarts
TTITLE2=Choirboys Gas
TTITLE3=Where Have All the Schoolboys Gone?
TTITLE4=Foreign Muck
TTITLE5=Discotheque
TTITLE6=Kick in the Teeth
TTITLE7=Dali's Diet
TTITLE8=Leigh-on-Sea
TTITLE9=Curry Crazy
TTITLE10=Colour Problem
TTITLE11=Rave-up
TTITLE12=Up the King of Luxembourg
TTITLE13=Flair
TTITLE14=You Wind Me Up
EXTD=YEAR: 1993
EXTT0=
EXTT1=
EXTT2=
EXTT3=
EXTT4=
EXTT5=
EXTT6=
EXTT7=
EXTT8=
EXTT9=
EXTT10=
EXTT11=
EXTT12=
EXTT13=
EXTT14=
PLAYORDER=
